<?xml version="1.0" encoding="utf-8"?>
<!-- Generator: Adobe Illustrator 22.0.1, SVG Export Plug-In . SVG Version: 6.00 Build 0)  -->
<svg version="1.1" baseProfile="basic" id="Layer_1"
	 xmlns="http://www.w3.org/2000/svg" xmlns:xlink="http://www.w3.org/1999/xlink" x="0px" y="0px" viewBox="0 0 200 200"
	 xml:space="preserve">
<style type="text/css">
	.st0{fill:#FFFFFF;}
</style>
<g>
	<g>
		<path class="st0" d="M129.2,179.2l-32.5-16l-32.5,16v-47.6c0-1.9,1.6-3.5,3.5-3.5s3.5,1.6,3.5,3.5v36.4l25.5-12.5l25.5,12.5v-36.4
			c0-1.9,1.6-3.5,3.5-3.5s3.5,1.6,3.5,3.5V179.2z"/>
	</g>
	<g>
		<g>
			<path class="st0" d="M77.4,171.3c-1.9,0-3.5-1.6-3.5-3.5v-29.3c0-1.9,1.6-3.5,3.5-3.5s3.5,1.6,3.5,3.5v29.3
				C80.9,169.8,79.3,171.3,77.4,171.3z"/>
		</g>
		<g>
			<path class="st0" d="M116.2,171.3c-1.9,0-3.5-1.6-3.5-3.5v-29.3c0-1.9,1.6-3.5,3.5-3.5s3.5,1.6,3.5,3.5v29.3
				C119.7,169.8,118.2,171.3,116.2,171.3z"/>
		</g>
	</g>
	<g>
		<path class="st0" d="M96.8,145c-3.1,0-5.3-2.3-7.1-4.1c-0.6-0.6-1.6-1.7-2.1-1.9c-0.5,0.1-1.8,0.8-2.6,1.2c-2.2,1.2-5,2.7-7.9,1.7
			c-2.9-0.9-4.3-3.8-5.4-6.1c-0.4-0.8-1-2.1-1.4-2.5c-0.4-0.1-1.9,0.2-2.8,0.4c-2.5,0.4-5.6,1-8.1-0.8c-2.5-1.8-2.9-4.9-3.3-7.4
			c-0.1-0.9-0.3-2.3-0.6-2.8c-0.5-0.2-1.9-0.4-2.8-0.6c-2.5-0.3-5.6-0.8-7.4-3.3c-1.8-2.5-1.2-5.6-0.8-8.1c0.2-0.9,0.4-2.3,0.3-2.9
			c-0.4-0.4-1.7-1-2.5-1.4c-2.3-1.1-5.1-2.5-6.1-5.4c-0.9-2.9,0.5-5.7,1.7-7.9c0.4-0.8,1.1-2.1,1.2-2.6C39,90,38,89.1,37.3,88.5
			c-1.8-1.8-4.1-4-4.1-7.1c0-3.1,2.3-5.3,4.1-7.1c0.6-0.6,1.7-1.6,1.9-2.1c-0.1-0.5-0.8-1.8-1.2-2.6c-1.2-2.2-2.7-5-1.7-7.9
			c0.9-2.9,3.8-4.3,6.1-5.4c0.8-0.4,2.1-1,2.5-1.4c0.1-0.4-0.2-1.9-0.4-2.8c-0.4-2.5-1-5.6,0.8-8.1c1.8-2.5,4.9-2.9,7.4-3.3
			c0.9-0.1,2.3-0.3,2.8-0.6c0.2-0.5,0.4-1.9,0.6-2.8c0.3-2.5,0.8-5.6,3.3-7.4c2.5-1.8,5.6-1.2,8.1-0.8c0.9,0.2,2.3,0.4,2.9,0.3
			c0.4-0.4,1-1.7,1.4-2.5c1.1-2.3,2.5-5.1,5.4-6.1c2.9-0.9,5.7,0.5,7.9,1.7c0.8,0.4,2.1,1.1,2.6,1.2c0.5-0.3,1.5-1.3,2.1-1.9
			c1.8-1.8,4-4.1,7.1-4.1c3.1,0,5.3,2.3,7.1,4.1c0.6,0.6,1.6,1.7,2.1,1.9c0.5-0.1,1.8-0.8,2.6-1.2c2.2-1.2,5-2.7,7.9-1.7
			c2.9,1,4.3,3.8,5.4,6.1c0.4,0.8,1,2.1,1.4,2.5c0.4,0.1,1.9-0.2,2.8-0.4c2.5-0.4,5.6-1,8.1,0.8c2.5,1.8,2.9,4.9,3.3,7.4
			c0.1,0.9,0.3,2.3,0.6,2.8c0.5,0.2,1.9,0.4,2.8,0.6c2.5,0.3,5.6,0.8,7.4,3.3c1.8,2.5,1.2,5.6,0.8,8.1c-0.2,0.9-0.4,2.3-0.3,2.9
			c0.4,0.4,1.7,1,2.5,1.4c2.3,1.1,5.1,2.5,6.1,5.4c0.9,2.9-0.5,5.7-1.7,7.9c-0.4,0.8-1.1,2.1-1.2,2.6c0.3,0.5,1.3,1.5,1.9,2.1
			c1.8,1.8,4.1,4,4.1,7.1c0,3.1-2.3,5.3-4.1,7.1c-0.6,0.6-1.7,1.6-1.9,2.1c0.1,0.5,0.8,1.8,1.2,2.6c1.2,2.2,2.7,5,1.7,7.9
			c-1,2.9-3.8,4.3-6.1,5.4c-0.8,0.4-2.1,1-2.5,1.4c-0.1,0.4,0.2,1.9,0.4,2.8c0.4,2.5,1,5.6-0.8,8.1c-1.8,2.5-4.9,2.9-7.4,3.3
			c-0.9,0.1-2.3,0.3-2.8,0.6c-0.2,0.5-0.4,1.9-0.6,2.8c-0.3,2.5-0.8,5.6-3.3,7.4c-2.5,1.8-5.6,1.2-8.1,0.8c-0.9-0.2-2.3-0.4-2.9-0.3
			c-0.4,0.4-1,1.7-1.4,2.5c-1.1,2.3-2.5,5.1-5.4,6.1c-2.9,0.9-5.7-0.5-7.9-1.7c-0.8-0.4-2.1-1.1-2.6-1.2c-0.5,0.3-1.5,1.3-2.1,1.9
			C102.1,142.7,99.9,145,96.8,145z M96.6,138L96.6,138L96.6,138z M97,138L97,138L97,138z M87.8,131.9c0.3,0,0.7,0,1,0.1
			c2.5,0.4,4.4,2.3,6,4c0.6,0.6,1.5,1.5,2,1.9c0.5-0.4,1.4-1.3,2-1.9c1.6-1.7,3.4-3.6,6-4c2.6-0.4,5,0.9,7.1,2
			c0.7,0.4,1.8,1,2.4,1.1c0.4-0.5,0.9-1.7,1.3-2.4c1-2.1,2.2-4.5,4.5-5.7c2.3-1.2,5-0.7,7.3-0.3c0.8,0.1,2,0.4,2.7,0.3
			c0.2-0.6,0.4-1.9,0.5-2.6c0.3-2.3,0.7-5,2.5-6.8c1.8-1.8,4.5-2.2,6.8-2.5c0.8-0.1,2-0.3,2.7-0.5c0-0.6-0.2-1.9-0.3-2.7
			c-0.4-2.3-0.9-5,0.3-7.3c1.2-2.3,3.6-3.5,5.7-4.5c0.7-0.4,1.9-0.9,2.4-1.3c-0.2-0.6-0.8-1.7-1.1-2.4c-1.1-2.1-2.4-4.4-2-7.1
			c0.4-2.6,2.3-4.4,4-6c0.6-0.6,1.5-1.5,1.9-2c-0.4-0.5-1.3-1.5-1.9-2c-1.7-1.6-3.6-3.4-4-6c-0.4-2.6,0.9-5,2-7.1
			c0.4-0.7,1-1.8,1.1-2.4c-0.5-0.4-1.7-0.9-2.4-1.3c-2.1-1-4.5-2.2-5.7-4.5c-1.2-2.3-0.7-5-0.3-7.3c0.1-0.8,0.4-2,0.3-2.7
			c-0.6-0.2-1.9-0.4-2.7-0.5c-2.3-0.3-5-0.7-6.8-2.5c-1.8-1.9-2.2-4.5-2.5-6.8c-0.1-0.8-0.3-2-0.5-2.7c-0.7,0-1.9,0.2-2.7,0.3
			c-2.3,0.4-5,0.9-7.3-0.3c-2.3-1.2-3.5-3.6-4.5-5.7c-0.4-0.7-0.9-1.9-1.3-2.4c-0.6,0.2-1.7,0.8-2.4,1.1c-2.1,1.1-4.4,2.4-7.1,2
			c-2.6-0.4-4.4-2.3-6-4c-0.6-0.6-1.5-1.5-2-1.9c-0.5,0.4-1.5,1.3-2,1.9c-1.6,1.7-3.4,3.6-6,4c-2.6,0.4-5-0.9-7.1-2
			c-0.7-0.4-1.8-1-2.4-1.1c-0.4,0.5-0.9,1.7-1.3,2.4c-1,2.1-2.2,4.5-4.5,5.7c-2.3,1.2-5,0.7-7.3,0.3c-0.8-0.1-2-0.4-2.7-0.3
			c-0.2,0.6-0.4,1.9-0.5,2.6c-0.3,2.3-0.7,5-2.5,6.8c-1.8,1.8-4.5,2.2-6.8,2.5c-0.8,0.1-2,0.3-2.6,0.5c0,0.6,0.2,1.9,0.3,2.7
			c0.4,2.3,0.9,5-0.3,7.3c-1.2,2.3-3.6,3.5-5.7,4.5c-0.7,0.4-1.9,0.9-2.4,1.3c0.2,0.6,0.8,1.7,1.1,2.4c1.1,2.1,2.4,4.4,2,7.1
			c-0.4,2.6-2.3,4.4-4,6c-0.6,0.6-1.5,1.5-1.9,2c0.4,0.5,1.3,1.5,1.9,2c1.7,1.6,3.6,3.4,4,6c0.4,2.6-0.9,5-2,7.1
			c-0.4,0.7-1,1.8-1.1,2.4c0.5,0.4,1.7,0.9,2.4,1.3c2.1,1,4.5,2.2,5.7,4.5c1.2,2.3,0.7,5,0.3,7.3c-0.1,0.8-0.4,2-0.3,2.7
			c0.6,0.2,1.9,0.4,2.6,0.5c2.3,0.3,5,0.7,6.8,2.5c1.8,1.8,2.2,4.5,2.5,6.8c0.1,0.8,0.3,2,0.5,2.6c0.7,0,1.9-0.2,2.7-0.3
			c2.3-0.4,5-0.9,7.3,0.3c2.3,1.2,3.5,3.6,4.5,5.7c0.4,0.7,0.9,1.9,1.3,2.4c0.6-0.2,1.7-0.8,2.4-1.1C83.5,133,85.5,131.9,87.8,131.9
			z M79.5,135.3L79.5,135.3L79.5,135.3z M114.1,135.3L114.1,135.3L114.1,135.3z M114.5,135.2L114.5,135.2L114.5,135.2z M79,135.2
			C79,135.2,79,135.2,79,135.2C79,135.2,79,135.2,79,135.2z M129.9,127.3L129.9,127.3L129.9,127.3z M130.3,127.1
			C130.3,127.1,130.3,127.1,130.3,127.1C130.3,127.1,130.3,127.1,130.3,127.1z M63.3,127.1L63.3,127.1z M142.5,114.9L142.5,114.9
			L142.5,114.9z M51.1,114.9L51.1,114.9L51.1,114.9z M142.7,114.5L142.7,114.5L142.7,114.5z M50.8,114.5L50.8,114.5z M150.7,98.7
			L150.7,98.7L150.7,98.7z M42.9,98.7L42.9,98.7z M40.2,81.6L40.2,81.6L40.2,81.6z M153.4,81.6L153.4,81.6L153.4,81.6z M153.4,81.2
			L153.4,81.2L153.4,81.2z M40.2,81.2L40.2,81.2z M42.9,64.1L42.9,64.1L42.9,64.1z M150.7,64.1L150.7,64.1L150.7,64.1z M142.5,47.9
			L142.5,47.9L142.5,47.9z M51.1,47.9L51.1,47.9z M63.3,35.7L63.3,35.7L63.3,35.7z M129.9,35.4L129.9,35.4L129.9,35.4z M79,27.6
			L79,27.6L79,27.6z M114.1,27.5L114.1,27.5L114.1,27.5z M79.5,27.5L79.5,27.5z M97,24.8L97,24.8z M96.6,24.8L96.6,24.8L96.6,24.8z"
			/>
	</g>
	<g>
		<path class="st0" d="M96.8,126.4c-24.8,0-45-20.2-45-45c0-24.8,20.2-45,45-45c24.8,0,45,20.2,45,45
			C141.8,106.2,121.6,126.4,96.8,126.4z M96.8,43.3c-21,0-38,17.1-38,38s17.1,38,38,38c21,0,38-17.1,38-38S117.8,43.3,96.8,43.3z"/>
	</g>
	<g>
		<path class="st0" d="M115.1,108.1l-18.3-9.6l-18.3,9.6L82,87.7L67.3,73.3l20.4-3l9.1-18.5l9.1,18.5l20.4,3l-14.8,14.4L115.1,108.1
			z M96.8,90.6l9,4.7l-1.7-10l7.2-7.1l-10-1.5l-4.5-9.1l-4.5,9.1l-10,1.5l7.3,7.1l-1.7,10L96.8,90.6z"/>
	</g>
</g>
</svg>
