<?xml version="1.0" encoding="utf-8"?>
<!-- Generator: Adobe Illustrator 22.0.1, SVG Export Plug-In . SVG Version: 6.00 Build 0)  -->
<svg version="1.1" id="Layer_1" xmlns="http://www.w3.org/2000/svg" xmlns:xlink="http://www.w3.org/1999/xlink" x="0px" y="0px"
	 viewBox="0 0 200 200" style="enable-background:new 0 0 200 200;" xml:space="preserve">
<style type="text/css">
	.st0{fill:#FFFFFF;}
</style>
<g>
	<g>
		<path class="st0" d="M108.4,19.3C68,19.3,34.5,49,28.5,87.7H12.3c-2.3,0-3,1.4-1.5,3.2l20.3,24.7c1.4,1.8,3.8,1.7,5.2-0.1
			l19.3-24.5c1.4-1.8,0.7-3.3-1.6-3.3H39.9c5.9-32.5,34.4-57.1,68.5-57.1c38.4,0,69.6,31.2,69.6,69.6c0,37.2-29.4,67.8-66.2,69.5v0
			c-19,0.9-38.2-5.8-52.7-20.3c-2.2-2.2-5.7-2.2-7.9,0c-2.2,2.2-2.2,5.7,0,7.9c15.6,15.6,36.1,23.5,56.7,23.6c0.2,0,0.3,0.1,0.5,0.1
			c44.6,0,80.8-36.3,80.8-80.8C189.2,55.6,152.9,19.3,108.4,19.3z"/>
		<path class="st0" d="M108.4,47.2c-3.1,0-5.6,2.5-5.6,5.6v47.4c0,3.1,2.5,5.6,5.6,5.6H150c3.1,0,5.6-2.5,5.6-5.6
			c0-3.1-2.5-5.6-5.6-5.6h-36V52.8C114,49.7,111.5,47.2,108.4,47.2z"/>
	</g>
</g>
</svg>
