<?xml version="1.0" encoding="utf-8"?>
<!-- Generator: Adobe Illustrator 22.0.1, SVG Export Plug-In . SVG Version: 6.00 Build 0)  -->
<svg version="1.1" id="Layer_1" xmlns="http://www.w3.org/2000/svg" xmlns:xlink="http://www.w3.org/1999/xlink" x="0px" y="0px"
	 viewBox="0 0 200 200" style="enable-background:new 0 0 200 200;" xml:space="preserve">
<style type="text/css">
	.st0{fill:#FFFFFF;}
</style>
<g>
	<g>
		<path class="st0" d="M94.1,181c-4.2,0-7.7-0.6-9.8-1.7c-6.9-1.8-12.3-3.5-17.2-5.1c-12.3-3.9-19.7-6.3-34.3-4.4
			c-1.9,0.2-3.6-1.1-3.8-3c-0.2-1.9,1.1-3.6,2.9-3.8c16.1-2.1,24.5,0.6,37.2,4.6c4.9,1.5,10.3,3.3,17.2,5.1c0.3,0.1,0.6,0.2,0.9,0.4
			c3.1,1.8,17.1,1.9,27.8-4.9l55.4-35c1.6-0.8,1.7-1.9,1.7-2.6c0-0.9-0.5-2.2-1.8-2.9c-2.6-1.3-7.1,0.1-12.1,3.7
			c-1.2,0.9-2.9,0.9-4.1-0.1c-1.2-0.9-1.6-2.5-1.1-4c1-2.5,1-4.6-0.1-5.4c-1.2-1-4.4-0.8-8.6,2.1l-3.5,2.4c-1,0.7-2.4,0.8-3.5,0.2
			c-1.1-0.6-1.8-1.7-1.8-3c0-1.4-0.3-2.4-0.7-2.7c-0.7-0.4-3.4-0.4-8.8,2.4l-20.9,11.1c-1.7,0.9-3.7,0.2-4.6-1.4
			c-0.9-1.7-0.3-3.7,1.4-4.6l20.9-11.1c6.8-3.6,12-4.4,15.5-2.3c0.9,0.6,2,1.5,2.8,2.9c6.1-4,12.2-4.5,16.1-1.4
			c1.7,1.4,2.8,3.3,3.2,5.5c6.4-2.9,10.7-1.7,13-0.6c3.4,1.7,5.5,5.2,5.5,8.9c0,3.7-1.9,6.8-5.2,8.5l-55.1,34.8
			C110.9,179,101.4,181,94.1,181z"/>
	</g>
	<g>
		<path class="st0" d="M99,154.9c-11.5,0-21.5-4.4-32.8-10.3c-1.7-0.9-2.3-2.9-1.5-4.6c0.9-1.7,2.9-2.3,4.6-1.5
			c19.9,10.2,31.3,13.1,50.2,4.4c1.4-0.5,3.3-1.5,3-3.2c-0.2-1-1-1.8-1.8-1.9c-4.6-0.3-8.3-0.3-11.4-0.4
			c-12.8-0.2-17.5-0.3-33.6-12.2l-13.8-10.2c-1.5-1.1-7.4-2-13.2,0.4l-25.4,10.3c-1.7,0.7-3.7-0.1-4.4-1.9c-0.7-1.7,0.1-3.7,1.9-4.4
			l25.4-10.3c6.9-2.8,15.6-2.6,19.8,0.5l13.8,10.2c14.3,10.6,17.6,10.7,29.7,10.9c3.2,0.1,7,0.1,11.7,0.4c4.1,0.2,7.5,3.4,8.2,7.6
			c0.5,3.5-1,8.1-7.1,10.5C113.4,153.2,105.9,154.9,99,154.9z"/>
	</g>
	<g>
		<path class="st0" d="M98.8,108c-24.5,0-44.5-19.9-44.5-44.5s19.9-44.5,44.5-44.5s44.5,19.9,44.5,44.5S123.3,108,98.8,108z
			 M98.8,25.9c-20.8,0-37.6,16.9-37.6,37.6s16.9,37.6,37.6,37.6s37.6-16.9,37.6-37.6S119.5,25.9,98.8,25.9z"/>
	</g>
	<g>
		<path class="st0" d="M82,64.4v10h-6.1V44.6h11.6c7,0,10.5,3.3,10.5,9.8c0,3.9-1.5,6.8-4.4,8.6l4.3,11.4h-6.6l-3.5-10H82z
			 M90.8,57.9c0.7-0.9,1.1-2,1.1-3.5s-0.4-2.6-1.1-3.4c-0.7-0.8-1.8-1.3-3.2-1.3H82v9.5h5.6C89,59.3,90.1,58.8,90.8,57.9z"/>
		<path class="st0" d="M102.6,83.7V52.5h5.8v1.2c1.9-1.1,3.6-1.7,5-1.7c3,0,5.1,0.9,6.5,2.7c1.4,1.8,2.1,4.8,2.1,9s-0.8,7.2-2.3,8.9
			c-1.6,1.7-4.1,2.5-7.6,2.5c-1,0-2-0.1-3.1-0.3l-0.5-0.1v9.1H102.6z M112.3,57.2c-1.1,0-2.2,0.2-3.3,0.7l-0.5,0.2v11.5
			c1.3,0.2,2.4,0.3,3.2,0.3c1.7,0,2.9-0.5,3.5-1.5c0.6-1,0.9-2.7,0.9-5.1C116.2,59.3,114.9,57.2,112.3,57.2z"/>
	</g>
</g>
</svg>
