<?xml version="1.0" encoding="utf-8"?>
<!-- Generator: Adobe Illustrator 22.0.1, SVG Export Plug-In . SVG Version: 6.00 Build 0)  -->
<svg version="1.1" id="Layer_1" xmlns="http://www.w3.org/2000/svg" xmlns:xlink="http://www.w3.org/1999/xlink" x="0px" y="0px"
	 viewBox="0 0 200 200" style="enable-background:new 0 0 200 200;" xml:space="preserve">
<style type="text/css">
	.st0{fill:#FFFFFF;}
</style>
<g>
	<path class="st0" d="M162.3,116.6c-0.9,0-1.8-0.3-2.5-1c-1.4-1.4-1.4-3.6,0-5l10.8-10.8c17.4-17.4,7.8-40.6-5.7-55.1
		c-4.8-5.2-10.2-9.5-15.6-12.6c-4.9-2.7-27.9-10.6-43.1,4.1L73.7,68.6c-1.5,1.5-1,2-0.4,2.6c3.1,3.2,13.7,4.7,20-1.5l8.2-8.1
		c7.1-6.5,15.1-4.1,22.1-1.9c8,2.4,15.6,4.7,24.5-2.3c1.5-1.2,3.7-0.9,4.9,0.6c1.2,1.5,0.9,3.7-0.6,4.9c-11.7,9.3-22.3,6.1-30.9,3.5
		c-7.1-2.2-11.3-3.2-15.2,0.3l-8.1,8c-9.2,9.1-24.3,7.1-29.9,1.4c-3.7-3.7-3.5-8.6,0.4-12.6l32.5-32.4c16.8-16.4,41.9-10.6,51.5-5.3
		c6,3.4,12,8.2,17.3,13.9c16.9,18.2,25.2,45.3,5.5,64.9l-10.8,10.8C164.1,116.3,163.2,116.6,162.3,116.6z"/>
</g>
<g>
	<path class="st0" d="M35.7,111.5c-0.9,0-1.8-0.3-2.5-1L22.4,99.7c-20-20-12.1-46.4,3.7-62.4c16.8-17.1,44.3-24.2,64.2-4.8l7.3,7.3
		c1.4,1.4,1.4,3.6,0,5c-1.4,1.4-3.6,1.4-5,0l-7.3-7.3C68,20.6,45.1,28.1,31.1,42.2c-13.5,13.6-20.4,35.9-3.8,52.5l10.8,10.8
		c1.4,1.4,1.4,3.6,0,5C37.5,111.1,36.6,111.5,35.7,111.5z"/>
</g>
<g>
	<path class="st0" d="M155.7,137.8c-3.3,0-6.9-1.4-10.2-4.8l-19.6-20.2c-1.4-1.4-1.3-3.6,0.1-5c1.4-1.3,3.6-1.3,5,0.1l19.6,20.2
		c4.3,4.4,7.6,2.4,9.2,0.9c2.8-2.7,3.9-7.5,0.8-10.7l-41.9-43.9c-1.3-1.4-1.3-3.6,0.1-5c1.4-1.3,3.6-1.3,5,0.1l41.9,43.9
		c6,6.3,4.2,15.6-1,20.6C162.3,136.3,159.1,137.8,155.7,137.8z"/>
</g>
<g>
	<path class="st0" d="M139.8,152.6c-3.3,0-6.7-1.2-9.4-4l-21.6-22.2c-1.4-1.4-1.3-3.6,0.1-5c1.4-1.4,3.6-1.3,5,0.1l21.6,22.2
		c3.2,3.3,8,1.6,10.4-0.7c1.4-1.4,4.3-5.2-0.3-10l-21.1-21.8c-1.4-1.4-1.3-3.6,0.1-5c1.4-1.4,3.6-1.3,5,0.1l21.1,21.8
		c6.9,7.1,4.9,15.3,0.2,19.9C147.9,150.8,143.8,152.6,139.8,152.6z"/>
</g>
<g>
	<path class="st0" d="M122.6,165.8c-3.3,0-6.7-1.2-9.5-4l-10.8-10.9c-1.4-1.4-1.4-3.6,0-5c1.4-1.4,3.6-1.4,5,0l10.8,10.9
		c3.3,3.3,8,1.7,10.2-0.5c1.4-1.3,4.1-5-0.5-9.8c-1.3-1.4-1.3-3.6,0.1-5c1.4-1.3,3.6-1.3,5,0.1c6.8,7.2,5.1,15.1,0.3,19.7
		C130.4,164.1,126.5,165.8,122.6,165.8z"/>
</g>
<g>
	<path class="st0" d="M90.7,181c-3.6,0-7-1.4-9.6-3.9l-1.2-1.1c-2.5-2.5-3.9-5.9-4-9.6c0-0.1,0-0.3,0-0.4c-4.2,0.6-8.5-0.6-11.7-3.8
		l-1.2-1.2c-2.5-2.5-4-5.9-4-9.6c0-0.1,0-0.2,0-0.3c-4.3,0.8-8.9-0.6-12.1-3.7l-1.2-1.1c-2.5-2.5-3.9-5.9-4-9.6c0-0.4,0-0.7,0-1.1
		c-0.5,0.1-1.1,0-1.6,0.1c-3.6,0-7-1.4-9.6-3.9l-1.2-1.1c-5.3-5.3-5.3-13.9,0-19.1l14.9-14.9c2.5-2.5,5.9-3.9,9.6-3.9c0,0,0,0,0,0
		c3.6,0,7,1.4,9.6,3.9l1.2,1.2c1.9,1.9,3.1,4.2,3.7,6.8l1.1-1.1c5.1-5.1,14-5.1,19.1,0l1.2,1.2c4.7,4.7,5.2,12,1.5,17.3
		c2.6,0.5,5,1.7,7,3.7l1.2,1.2c4.4,4.4,5.1,11.1,2.2,16.3c2.6,0.5,5.1,1.7,7.1,3.7l1.2,1.2c5.3,5.3,5.3,13.9,0,19.1l-10,10
		C97.7,179.6,94.3,181,90.7,181z M99.6,149.8c-1.7,0-3.3,0.6-4.6,1.9l-10,10c-1.2,1.2-1.9,2.9-1.9,4.6c0,1.7,0.7,3.4,1.9,4.6
		l1.2,1.2c2.4,2.4,6.8,2.4,9.2,0l10-10c2.5-2.5,2.5-6.7,0-9.2l-1.2-1.2C102.9,150.5,101.2,149.8,99.6,149.8z M89.1,128.7
		c-1.7,0-3.3,0.6-4.6,1.9l-16.3,16.3c-1.2,1.2-1.9,2.8-1.9,4.6c0,1.7,0.7,3.4,1.9,4.6l1.2,1.2c2.5,2.5,6.7,2.5,9.2,0l16.3-16.3
		c2.5-2.5,2.5-6.7,0-9.2l-1.2-1.2C92.4,129.3,90.8,128.7,89.1,128.7z M79.4,106.5c-1.7,0-3.4,0.7-4.6,1.9L51,132.1
		c-1.2,1.2-1.9,2.8-1.9,4.6c0,1.7,0.7,3.4,1.9,4.6l1.2,1.2c2.4,2.4,6.8,2.4,9.2,0l23.8-23.8c2.5-2.5,2.5-6.7,0-9.2l-1.2-1.2
		C82.8,107.2,81.1,106.5,79.4,106.5z M54.3,99.7c-1.7,0-3.4,0.7-4.6,1.9l-14.9,14.9c-2.5,2.5-2.5,6.7,0,9.2l1.2,1.1
		c1.2,1.2,2.8,1.9,4.6,1.9h0c1.7,0,3.4-0.7,4.6-1.9L60,111.9c1.2-1.2,1.9-2.8,1.9-4.6c0-1.7-0.7-3.4-1.9-4.6l-1.2-1.2
		C57.7,100.3,56,99.7,54.3,99.7L54.3,99.7z"/>
</g>
</svg>
